Coordinates
version=1
nRows=17
nColumns=36
inDegrees=yes

Units are S.I. units (second, meters, Newtons, ...)
If the header above contains a line with 'inDegrees', this indicates whether rotational values are in degrees (yes) or radians (no).

endheader
time	pelvis_tilt	pelvis_list	pelvis_rotation	pelvis_tx	pelvis_ty	pelvis_tz	hip_flexion_r	hip_adduction_r	hip_rotation_r	knee_angle_r	knee_angle_r_beta	ankle_angle_r	subtalar_angle_r	mtp_angle_r	hip_flexion_l	hip_adduction_l	hip_rotation_l	knee_angle_l	knee_angle_l_beta	ankle_angle_l	subtalar_angle_l	mtp_angle_l	lumbar_extension	lumbar_bending	lumbar_rotation	arm_flex_r	arm_add_r	arm_rot_r	elbow_flex_r	pro_sup_r	arm_flex_l	arm_add_l	arm_rot_l	elbow_flex_l	pro_sup_l
      2.68750000	    -15.71787969	     -1.11643629	      1.25919999	     -0.34228441	      1.36029949	     -0.08582232	      8.67645353	      0.35169500	     -9.31481075	     12.47864276	      0.21779340	    -46.33517549	    -12.63845677	     -7.49999987	      3.55801840	     -0.79216598	      3.51246567	     12.28496103	      0.21441302	    -42.87515481	     -5.69468945	     -7.49999987	      0.32813154	     -0.50166203	     -2.68764275	     68.87404355	    -21.42985374	     35.87036934	     92.18005569	     97.08317949	     71.70223579	    -23.44749692	     35.15906785	     95.43874535	     79.00179409
      2.69166670	    -15.58826469	     -1.41419562	      1.39927159	     -0.33602572	      1.36303127	     -0.08550270	      9.30398774	      0.76380850	     -8.27783433	     13.15120769	      0.22953187	    -44.19140127	    -11.11852479	     -7.49999987	      3.75614221	     -1.21730309	      3.60819058	     12.36079443	      0.21573656	    -42.09650196	     -5.16645210	     -7.49999987	      0.14892125	     -0.20208677	     -2.83924470	     68.48438220	    -21.12755983	     35.14811583	     91.89927425	     94.96548806	     71.41255553	    -23.10201444	     34.64179609	     95.45241411	     77.99000901
      2.69583330	    -15.33742258	     -1.47865677	      1.43539494	     -0.32996412	      1.36607168	     -0.08429654	      9.51318084	      0.94659516	     -7.58206453	     13.69644637	      0.23904808	    -42.95189881	    -10.19187035	     -7.49999987	      3.75770640	     -1.21076792	      4.35003027	     12.65577332	      0.22088491	    -41.76695193	     -4.10119558	     -7.49999987	     -0.14396882	     -0.19013184	     -2.93851786	     68.13584871	    -21.02266136	     34.96969387	     91.76220189	     95.11512476	     71.29519170	    -22.96049246	     34.54894432	     95.38903045	     78.05128454
      2.70000000	    -15.10924081	     -1.56815365	      1.47015501	     -0.32636829	      1.36503129	     -0.08576663	     10.08302883	      0.91478044	     -7.09489007	     14.80628930	      0.25841850	    -41.80500322	     -9.40419318	     -7.49999987	      4.00928766	     -1.20113037	      5.26040827	     13.11607013	      0.22891861	    -41.82102092	     -2.97704383	     -7.49999987	     -0.46598758	     -0.09872318	     -3.03995294	     67.77221140	    -21.04013660	     34.71867275	     91.75852639	     95.23909208	     71.17822811	    -22.87682833	     34.30353987	     95.32906528	     78.09096009
      2.70416670	    -15.26518003	     -1.36736244	      1.43362196	     -0.32383656	      1.36507969	     -0.08578125	     11.17683718	      0.44295482	     -6.58432628	     15.65266418	      0.27319053	    -41.69177947	     -8.79274635	     -7.49999987	      5.11333047	     -0.88666198	      6.25341217	     13.96271508	      0.24369535	    -42.00985407	     -2.80304548	     -7.49999987	     -0.51617164	     -0.30203720	     -2.91214118	     67.23899859	    -21.06746326	     34.02590671	     92.14970214	     97.34396855	     70.85880532	    -22.51338412	     33.67444258	     95.55227364	     79.09270539
      2.70833330	    -15.09813735	     -1.35594830	      1.41616660	     -0.31691374	      1.37032929	     -0.08477585	     11.67323017	      0.43945873	     -6.52059648	     15.85701584	      0.27675714	    -40.27923736	     -7.55747408	     -7.49999987	      5.48987756	     -0.79820994	      6.38414603	     14.51091422	      0.25326323	    -41.21924092	     -2.12665535	     -7.49999987	     -1.02924193	     -0.38974871	     -2.90320460	     67.02044801	    -20.95738968	     33.91897428	     92.21082314	     95.60544130	     70.94238103	    -22.20572564	     33.50732704	     95.96095761	     78.43008971
      2.71250000	    -14.89582438	     -1.05441370	      1.19542705	     -0.31214891	      1.37424455	     -0.08505466	     12.07612281	     -0.04393428	     -5.96039096	     16.23189365	      0.28329999	    -40.06623321	     -6.54942583	     -7.49999987	      5.93379138	     -0.42127588	      7.20021464	     15.17945506	      0.26493147	    -40.95631559	     -0.79962949	     -7.49999987	     -1.55315355	     -0.67908094	     -2.70860210	     66.92012845	    -20.43443449	     33.91815597	     91.80653680	     95.83673544	     70.89704488	    -21.98158729	     33.22306841	     95.97218794	     78.47893839
      2.71666670	    -14.83259075	     -1.03750017	      1.30273164	     -0.30560861	      1.37246142	     -0.08506270	     12.54425102	     -0.12977000	     -5.55566282	     16.52889983	      0.28848372	    -39.76628874	     -5.52290519	     -7.49999987	      6.32419086	     -0.43382523	      7.17714998	     15.39326887	      0.26866322	    -40.42740924	     -0.21730992	     -7.49999987	     -1.80477769	     -0.72919811	     -2.84820614	     66.54838600	    -20.18651266	     33.77539102	     91.76002293	     94.97017540	     70.60354692	    -21.70492870	     32.92202086	     96.29788979	     77.95178665
      2.72083330	    -14.71566287	     -0.98352441	      1.33457988	     -0.30117946	      1.37657836	     -0.08618490	     12.82130091	     -0.38494058	     -5.51610152	     16.32484469	      0.28492229	    -39.66592560	     -4.66936814	     -7.49999987	      6.47408605	     -0.24157641	      7.07922026	     15.27239411	      0.26655356	    -39.80532684	      1.08238498	     -7.49999987	     -2.08526711	     -0.67608957	     -2.89317569	     66.33127280	    -19.89538195	     33.84117234	     91.63754330	     95.26258318	     70.21329947	    -21.45606690	     32.76776008	     96.37063094	     78.03666692
      2.72500000	    -14.58240516	     -0.82855362	      1.45975009	     -0.29643248	      1.37652703	     -0.08471252	     13.09454995	     -0.64814746	     -4.99027574	     16.46905794	      0.28743929	    -40.04717543	     -3.97671534	     -7.49999987	      6.92710337	     -0.17110295	      6.82983743	     15.59811105	      0.27223839	    -39.85354085	      1.10616769	     -7.49999987	     -2.31184537	     -0.69773482	     -3.16798983	     66.00270738	    -19.28864244	     33.67458669	     91.39076754	     97.55066628	     69.53295587	    -21.40290983	     32.11957418	     96.47014760	     78.90337204
      2.72916670	    -14.57394246	     -0.84903471	      1.67822917	     -0.29129834	      1.37460360	     -0.08480841	     13.74203211	     -0.88733274	     -5.19848574	     17.29458206	      0.30184740	    -40.65806129	     -4.19419735	     -7.49999987	      7.57216490	     -0.18818895	      6.68393010	     16.34955052	      0.28535349	    -39.54730114	      0.58167543	     -7.49999987	     -2.39015588	     -0.66155938	     -3.34074904	     65.46502705	    -19.17981775	     33.54523375	     91.57723555	     95.09888494	     69.13911182	    -21.02049354	     32.07789536	     96.42303613	     77.81102389
      2.73333330	    -14.38756320	     -0.82762131	      1.68212495	     -0.28583609	      1.37669394	     -0.08592660	     14.18351924	     -1.00155995	     -4.98227875	     17.60601491	      0.30728293	    -40.35504060	     -3.76088570	     -7.49999987	      8.01472511	     -0.40332515	      5.40066093	     16.51050275	      0.28816263	    -37.49855556	     -0.47332859	     -7.49999987	     -2.83076915	     -0.59065248	     -3.34083652	     65.25391048	    -19.08309620	     33.34378544	     91.95649903	     94.04607512	     69.08430746	    -20.72723353	     32.03578258	     96.54433093	     77.31170878
      2.73750000	    -14.27100408	     -1.01666802	      1.80029348	     -0.28118192	      1.37802492	     -0.08605821	     14.72916645	     -0.96795858	     -5.48352064	     17.93070617	      0.31294986	    -39.81216947	     -3.52594860	     -7.49999987	      8.30377084	     -0.69660991	      4.68232247	     16.53917116	      0.28866299	    -36.68398179	      0.51048220	     -7.49999987	     -3.23684254	     -0.36799726	     -3.25393145	     64.84033926	    -19.13048412	     32.55164101	     92.34393069	     97.41700864	     69.08279563	    -20.04160730	     32.00822025	     96.19780496	     78.73108048
      2.74166670	    -14.04528272	     -1.11082761	      1.85877151	     -0.27545656	      1.37920654	     -0.08644737	     14.81861155	     -1.11931705	     -6.32286647	     17.90178353	      0.31244506	    -39.44909901	     -3.65800201	     -7.49999987	      8.18707598	     -0.87201036	      3.97956485	     16.25312111	      0.28367048	    -36.14081714	      0.98007700	     -7.49999987	     -3.60992503	     -0.11800039	     -3.31297173	     64.70385809	    -18.88251221	     32.56667239	     92.25272715	     95.44524987	     68.85432454	    -19.67271554	     31.88735392	     96.01164950	     77.90762152
      2.74583330	    -13.89183261	     -1.29502437	      1.94180520	     -0.26972607	      1.37735317	     -0.08632649	     14.89919446	     -1.37235742	     -7.34678025	     18.21104974	      0.31784278	    -39.89692478	     -4.39764808	     -7.49999987	      8.17038620	     -1.03795855	      3.47336330	     16.01233588	      0.27946798	    -36.06391210	      1.51039705	     -7.49999987	     -3.77411178	      0.23084407	     -3.39926781	     64.40679738	    -18.72546018	     32.53735509	     92.07963060	     95.59233015	     68.56499952	    -19.38907789	     31.81359918	     95.84939879	     77.92937726
      2.75000000	    -13.90892410	     -1.44169291	      1.85719645	     -0.26448698	      1.37287439	     -0.08573460	     15.37002386	     -1.50473315	     -8.11479404	     18.48637575	      0.32264812	    -40.74883526	     -5.76674956	     -7.49999987	      8.25862311	     -1.13550610	      3.43213487	     15.78529604	      0.27550539	    -36.87489692	      2.19030503	     -7.49999987	     -3.77639553	      0.42244056	     -3.27265233	     63.92289175	    -18.73656687	     31.91283384	     92.53278885	     96.67828226	     68.43592044	    -18.99788898	     31.68136707	     96.04857764	     78.05987825
      2.75416670	    -13.98179045	     -1.56086407	      2.13425731	     -0.25957099	      1.37359442	     -0.08575830	     15.86109512	     -1.66400243	     -8.13399369	     18.80733358	      0.32824989	    -41.88332748	     -6.13237075	     -7.49999987	      8.73163307	     -1.24816048	      3.33760867	     15.90812441	      0.27764915	    -37.42518320	      2.41977465	     -7.49999987	     -3.73755628	      0.70408869	     -3.50878227	     63.43702307	    -18.68959335	     31.63814977	     92.90736348	     96.67833868	     68.06193080	    -18.74394176	     31.54605757	     96.16601225	     78.05586537
